<svg width="33" height="36" viewBox="0 0 33 36" fill="none" xmlns="http://www.w3.org/2000/svg">
<g id="&#240;&#159;&#166;&#134; icon &#34;User&#34;">
<path id="Vector" d="M16.2114 18C21.2614 18 25.3543 13.9711 25.3543 9C25.3543 4.02891 21.2614 0 16.2114 0C11.1614 0 7.06857 4.02891 7.06857 9C7.06857 13.9711 11.1614 18 16.2114 18ZM22.6114 20.25H21.4186C19.8329 20.9672 18.0686 21.375 16.2114 21.375C14.3543 21.375 12.5971 20.9672 11.0043 20.25H9.81143C4.51143 20.25 0.211426 24.4828 0.211426 29.7V32.625C0.211426 34.4883 1.74714 36 3.64 36H28.7829C30.6757 36 32.2114 34.4883 32.2114 32.625V29.7C32.2114 24.4828 27.9114 20.25 22.6114 20.25Z" fill="black"/>
</g>
</svg>
